<svg width="17" height="16" viewBox="0 0 17 16" fill="none" xmlns="http://www.w3.org/2000/svg">
<path d="M8.90726 10.815C8.85548 10.8733 8.79248 10.9198 8.72228 10.9517C8.65207 10.9835 8.57618 11 8.49946 11C8.42274 11 8.34685 10.9835 8.27664 10.9517C8.20643 10.9198 8.14344 10.8733 8.09166 10.815L5.14463 7.49598C5.04575 7.38452 4.99393 7.23718 5.00057 7.08637C5.0072 6.93556 5.07174 6.79365 5.17999 6.69184C5.28824 6.59003 5.43134 6.53667 5.5778 6.5435C5.72426 6.55033 5.86208 6.61679 5.96096 6.72825L7.94726 8.9662V0.568969C7.94726 0.418069 8.00548 0.27335 8.1091 0.166647C8.21273 0.0599448 8.35328 0 8.49983 0C8.64638 0 8.78693 0.0599448 8.89055 0.166647C8.99418 0.27335 9.0524 0.418069 9.0524 0.568969V8.96544L11.0394 6.7275C11.1384 6.61613 11.2763 6.54981 11.4227 6.54312C11.5692 6.53644 11.7122 6.58993 11.8204 6.69184C11.9286 6.79375 11.993 6.93572 11.9995 7.08653C12.006 7.23733 11.954 7.38462 11.855 7.49598L8.90726 10.815Z" fill="black"/>
<path d="M16 8C16 12.1421 12.6421 15.5 8.5 15.5C4.35786 15.5 1 12.1421 1 8" stroke="black"/>
</svg>
