<svg width="18" height="18" viewBox="0 0 18 18" fill="none" xmlns="http://www.w3.org/2000/svg">
<path d="M11.5 0C11.8978 0 12.2794 0.158035 12.5607 0.43934C12.842 0.720644 13 1.10218 13 1.5V6.5C13 6.89782 12.842 7.27936 12.5607 7.56066C12.2794 7.84196 11.8978 8 11.5 8C11.1022 8 10.7206 7.84196 10.4393 7.56066C10.158 7.27936 10 6.89782 10 6.5V1.5C10 1.10218 10.158 0.720644 10.4393 0.43934C10.7206 0.158035 11.1022 0 11.5 0ZM1.5 10H3V11.5C3 11.7967 2.91203 12.0867 2.7472 12.3334C2.58238 12.58 2.34811 12.7723 2.07403 12.8858C1.79994 12.9994 1.49834 13.0291 1.20737 12.9712C0.916394 12.9133 0.649119 12.7704 0.43934 12.5607C0.229562 12.3509 0.0867006 12.0836 0.0288228 11.7926C-0.0290551 11.5017 0.000649929 11.2001 0.114181 10.926C0.227713 10.6519 0.419972 10.4176 0.666645 10.2528C0.913319 10.088 1.20333 10 1.5 10ZM10 15H11.5C11.7967 15 12.0867 15.088 12.3334 15.2528C12.58 15.4176 12.7723 15.6519 12.8858 15.926C12.9994 16.2001 13.0291 16.5017 12.9712 16.7926C12.9133 17.0836 12.7704 17.3509 12.5607 17.5607C12.3509 17.7704 12.0836 17.9133 11.7926 17.9712C11.5017 18.0291 11.2001 17.9993 10.926 17.8858C10.6519 17.7723 10.4176 17.58 10.2528 17.3334C10.088 17.0867 10 16.7967 10 16.5V15ZM11.5 10H16.5C16.8978 10 17.2794 10.158 17.5607 10.4393C17.842 10.7206 18 11.1022 18 11.5C18 11.8978 17.842 12.2794 17.5607 12.5607C17.2794 12.842 16.8978 13 16.5 13H11.5C11.1022 13 10.7206 12.842 10.4393 12.5607C10.158 12.2794 10 11.8978 10 11.5C10 11.1022 10.158 10.7206 10.4393 10.4393C10.7206 10.158 11.1022 10 11.5 10ZM16.5 5C16.8978 5 17.2794 5.15804 17.5607 5.43934C17.842 5.72064 18 6.10218 18 6.5C18 6.89782 17.842 7.27936 17.5607 7.56066C17.2794 7.84196 16.8978 8 16.5 8H15V6.5C15 6.10218 15.158 5.72064 15.4393 5.43934C15.7206 5.15804 16.1022 5 16.5 5ZM1.5 5H6.5C6.89783 5 7.27936 5.15804 7.56066 5.43934C7.84196 5.72064 8 6.10218 8 6.5C8 6.89782 7.84196 7.27936 7.56066 7.56066C7.27936 7.84196 6.89783 8 6.5 8H1.5C1.10218 8 0.720645 7.84196 0.43934 7.56066C0.158036 7.27936 5.70751e-07 6.89782 5.70751e-07 6.5C5.70751e-07 6.10218 0.158036 5.72064 0.43934 5.43934C0.720645 5.15804 1.10218 5 1.5 5ZM6.5 0C6.89783 0 7.27936 0.158035 7.56066 0.43934C7.84196 0.720644 8 1.10218 8 1.5V3H6.5C6.10218 3 5.72065 2.84196 5.43934 2.56066C5.15804 2.27936 5 1.89782 5 1.5C5 1.10218 5.15804 0.720644 5.43934 0.43934C5.72065 0.158035 6.10218 0 6.5 0ZM6.5 10C6.89783 10 7.27936 10.158 7.56066 10.4393C7.84196 10.7206 8 11.1022 8 11.5V16.5C8 16.8978 7.84196 17.2794 7.56066 17.5607C7.27936 17.842 6.89783 18 6.5 18C6.10218 18 5.72065 17.842 5.43934 17.5607C5.15804 17.2794 5 16.8978 5 16.5V11.5C5 11.1022 5.15804 10.7206 5.43934 10.4393C5.72065 10.158 6.10218 10 6.5 10Z" fill="#7C7C7C"/>
</svg>
